# xmcd
#
# Track frame offsets:
#	150
#	13495
#	30757
#	49215
#	65935
#	77825
#	96912
#	117255
#	137505
#	156482
#	172365
#	190282
#	207530
#	221522
#	232910
#
# Disc length: 3295 seconds
#
# Revision: 2
# Processed by: cddbd v1.5.2PL0 Copyright (c) Steve Scherf et al.
# Submitted via: EasyCDDAExtractor 7.0.5.4
#
DISCID=e00cdd0f
DTITLE=Various Artist - volume 11
DYEAR=1900
DGENRE=compilation
TTITLE0=philippe lavil - elle prefere l'amour en mer
TTITLE1=nena - 99 luftballons
TTITLE2=guesch patti - etienne
TTITLE3=marvin gaye - what's going on
TTITLE4=jesse garon - c'est lundi
TTITLE5=boney m - rivers of babylon
TTITLE6=nick kamen - each time you break my heart
TTITLE7=carlos - rosalie
TTITLE8=free - all right now
TTITLE9=nomads - yakalelo
TTITLE10=claude francois - meme si tu revenais
TTITLE11=east side beat - ride like the wind
TTITLE12=el chato - el porompompero
TTITLE13=annie cordy - tata yoyo
TTITLE14=two man sound - charlie brown
EXTD=
EXTT0=
EXTT1=
EXTT2=
EXTT3=
EXTT4=
EXTT5=
EXTT6=
EXTT7=
EXTT8=
EXTT9=
EXTT10=
EXTT11=
EXTT12=
EXTT13=
EXTT14=
PLAYORDER=
